# xmcd
#
# Track frame offsets:
#	150
#	15781
#	40313
#	59523
#	78114
#	99568
#	119801
#	138559
#	163663
#	183324
#	201230
#	223918
#	240566
#	258562
#
# Disc length: 3647 seconds
#
# Revision: 0
# Processed by: cddbd v1.5.2PL0 Copyright (c) Steve Scherf et al.
# Submitted via: EasyCDDAExtractor 11.5.3.1
#
DISCID=c80e3d0e
DTITLE=Roachford - Word of mouth (limited edition)
DYEAR=1900
DGENRE=
TTITLE0=Open Road
TTITLE1=Tomorrow
TTITLE2=Rock You
TTITLE3=Runaway
TTITLE4=River of love
TTITLE5=Way to my heart
TTITLE6=Together
TTITLE7=Crazy love
TTITLE8=Work it out
TTITLE9=Pop muzak
TTITLE10=Everything
TTITLE11=It's allright
TTITLE12=Shake it!
TTITLE13=River of love (Full intentionradio mix)
EXTD=
EXTT0=
EXTT1=
EXTT2=
EXTT3=
EXTT4=
EXTT5=
EXTT6=
EXTT7=
EXTT8=
EXTT9=
EXTT10=
EXTT11=
EXTT12=
EXTT13=
PLAYORDER=
